<?xml version="1.0" encoding="utf-8"?>
<!-- Generator: Adobe Illustrator 15.0.2, SVG Export Plug-In . SVG Version: 6.00 Build 0)  -->
<!DOCTYPE svg PUBLIC "-//W3C//DTD SVG 1.1//EN" "http://www.w3.org/Graphics/SVG/1.1/DTD/svg11.dtd">
<svg version="1.1" id="Layer_4" xmlns="http://www.w3.org/2000/svg" xmlns:xlink="http://www.w3.org/1999/xlink" x="0px" y="0px"
	 width="128px" height="128px" viewBox="0 0 128 128" enable-background="new 0 0 128 128" xml:space="preserve">
<path fill="#565758" d="M128,117.199c0,5.965-4.836,10.801-10.801,10.801H10.801C4.836,127.999,0,123.164,0,117.199v-106.4
	c0-5.965,4.836-10.8,10.801-10.8h106.398c5.965,0,10.801,4.835,10.801,10.8V117.199z"/>
<circle fill="#CCCCCC" stroke="#5B5B5B" stroke-width="2" stroke-miterlimit="10" cx="64.121" cy="63.999" r="55.75"/>
<ellipse opacity="0.78" fill="#7D9CD3" stroke="#36364F" stroke-width="0.75" stroke-miterlimit="10" cx="64.002" cy="36.756" rx="9.838" ry="27.248"/>
<ellipse transform="matrix(-0.7071 0.7071 -0.7071 -0.7071 107.758 44.9851)" opacity="0.78" fill="#7D9CD3" stroke="#36364F" stroke-width="0.75" stroke-miterlimit="10" cx="44.563" cy="44.809" rx="9.838" ry="27.249"/>
<ellipse opacity="0.78" fill="#7D9CD3" stroke="#36364F" stroke-width="0.75" stroke-miterlimit="10" cx="36.628" cy="64.371" rx="27.248" ry="9.838"/>
<ellipse transform="matrix(0.7071 0.7071 -0.7071 0.7071 72.2805 -6.8732)" opacity="0.78" fill="#7D9CD3" stroke="#36364F" stroke-width="0.75" stroke-miterlimit="10" cx="44.437" cy="83.812" rx="9.839" ry="27.249"/>
<ellipse opacity="0.78" fill="#7D9CD3" stroke="#36364F" stroke-width="0.75" stroke-miterlimit="10" cx="64.121" cy="91.741" rx="9.838" ry="27.249"/>
<ellipse transform="matrix(0.7071 -0.7071 0.7071 0.7071 -34.7744 83.4302)" opacity="0.78" fill="#7D9CD3" stroke="#36364F" stroke-width="0.75" stroke-miterlimit="10" cx="83.317" cy="83.689" rx="9.838" ry="27.248"/>
<ellipse opacity="0.78" fill="#7D9CD3" stroke="#36364F" stroke-width="0.75" stroke-miterlimit="10" cx="91.613" cy="64.371" rx="27.249" ry="9.838"/>
<ellipse transform="matrix(-0.7071 -0.7071 0.7071 -0.7071 110.7605 135.4973)" opacity="0.78" fill="#7D9CD3" stroke="#36364F" stroke-width="0.75" stroke-miterlimit="10" cx="83.443" cy="44.809" rx="9.838" ry="27.249"/>
</svg>
