<?xml version="1.0" encoding="utf-8"?>
<!-- Generator: Adobe Illustrator 15.0.2, SVG Export Plug-In . SVG Version: 6.00 Build 0)  -->
<!DOCTYPE svg PUBLIC "-//W3C//DTD SVG 1.1//EN" "http://www.w3.org/Graphics/SVG/1.1/DTD/svg11.dtd">
<svg version="1.1" id="Layer_4" xmlns="http://www.w3.org/2000/svg" xmlns:xlink="http://www.w3.org/1999/xlink" x="0px" y="0px"
	 width="128px" height="128px" viewBox="0 0 128 128" enable-background="new 0 0 128 128" xml:space="preserve">
<path fill="#565758" d="M128,117.2c0,5.965-4.836,10.801-10.801,10.801H10.8C4.835,128,0,123.165,0,117.2V10.8
	C0,4.835,4.835,0,10.8,0h106.399C123.164,0,128,4.835,128,10.8V117.2z"/>
<g>
	<path fill="#A7F995" stroke="#5B5B5B" stroke-width="2" stroke-miterlimit="10" d="M102.365,25.635l4.316-4.315
		C95.758,10.396,80.668,3.64,64,3.64v6.104C78.984,9.745,92.547,15.817,102.365,25.635z"/>
	<path fill="#A7F995" stroke="#5B5B5B" stroke-width="2" stroke-miterlimit="10" d="M64,9.745V3.64
		c-16.668,0-31.758,6.756-42.682,17.679l4.316,4.317C35.453,15.817,49.018,9.745,64,9.745z"/>
	<path fill="#A7F995" stroke="#5B5B5B" stroke-width="2" stroke-miterlimit="10" d="M9.746,64c0-14.982,6.072-28.546,15.889-38.363
		l-4.316-4.317C10.396,32.242,3.641,47.332,3.641,64H9.746L9.746,64z"/>
	<path fill="#A7F995" stroke="#5B5B5B" stroke-width="2" stroke-miterlimit="10" d="M118.256,64L118.256,64h6.104
		c0-16.668-6.756-31.758-17.678-42.68l-4.316,4.315C112.184,35.454,118.256,49.017,118.256,64z"/>
	<path fill="#A7F995" stroke="#5B5B5B" stroke-width="2" stroke-miterlimit="10" d="M9.746,64H3.641V64
		c0,16.668,6.756,31.758,17.678,42.68l4.318-4.316C15.818,92.546,9.746,78.981,9.746,64z"/>
	<path fill="#A7F995" stroke="#5B5B5B" stroke-width="2" stroke-miterlimit="10" d="M124.359,64h-6.104
		c0,14.982-6.072,28.546-15.891,38.365l4.316,4.316C117.604,95.759,124.359,80.669,124.359,64L124.359,64z"/>
	<path fill="#A7F995" stroke="#5B5B5B" stroke-width="2" stroke-miterlimit="10" d="M64,118.255v6.105
		c16.668,0,31.758-6.756,42.682-17.68l-4.316-4.316C92.547,112.183,78.982,118.255,64,118.255z"/>
	<path fill="#A7F995" stroke="#5B5B5B" stroke-width="2" stroke-miterlimit="10" d="M25.637,102.364l-4.318,4.316
		C32.242,117.604,47.332,124.36,64,124.36v-6.105C49.018,118.255,35.455,112.183,25.637,102.364z"/>
</g>
<g>
	<path fill="#AAF47A" stroke="#5B5B5B" stroke-width="2" stroke-miterlimit="10" d="M64,17.147V9.745
		c-14.982,0-28.547,6.072-38.365,15.892l5.236,5.234C39.35,22.391,51.062,17.147,64,17.147z"/>
	<path fill="#AAF47A" stroke="#5B5B5B" stroke-width="2" stroke-miterlimit="10" d="M17.148,64c0-12.938,5.244-24.65,13.723-33.129
		l-5.236-5.234C15.818,35.454,9.746,49.017,9.746,64l0,0H17.148L17.148,64z"/>
	<path fill="#AAF47A" stroke="#5B5B5B" stroke-width="2" stroke-miterlimit="10" d="M97.131,30.87l5.234-5.234
		C92.547,15.817,78.984,9.745,64,9.745v7.402C76.939,17.147,88.652,22.391,97.131,30.87z"/>
	<path fill="#AAF47A" stroke="#5B5B5B" stroke-width="2" stroke-miterlimit="10" d="M17.148,64H9.746
		c0,14.982,6.072,28.546,15.891,38.365l5.234-5.234C22.393,88.651,17.148,76.938,17.148,64z"/>
	<path fill="#AAF47A" stroke="#5B5B5B" stroke-width="2" stroke-miterlimit="10" d="M97.131,97.13l5.234,5.234
		c9.818-9.818,15.891-23.383,15.891-38.365h-7.402C110.854,76.938,105.609,88.651,97.131,97.13z"/>
	<path fill="#AAF47A" stroke="#5B5B5B" stroke-width="2" stroke-miterlimit="10" d="M102.365,25.635l-5.234,5.234
		c8.479,8.479,13.723,20.192,13.723,33.13l0,0h7.402l0,0C118.256,49.017,112.184,35.454,102.365,25.635z"/>
	<path fill="#AAF47A" stroke="#5B5B5B" stroke-width="2" stroke-miterlimit="10" d="M30.871,97.13l-5.234,5.234
		c9.818,9.818,23.381,15.891,38.363,15.891v-7.402C51.062,110.853,39.35,105.608,30.871,97.13z"/>
	<path fill="#AAF47A" stroke="#5B5B5B" stroke-width="2" stroke-miterlimit="10" d="M64,110.853v7.402
		c14.982,0,28.547-6.072,38.365-15.891l-5.234-5.234C88.652,105.608,76.939,110.853,64,110.853z"/>
</g>
<g>
	<path fill="#AAE249" stroke="#5B5B5B" stroke-width="2" stroke-miterlimit="10" d="M64,23.773v-6.626
		c-12.938,0-24.65,5.244-33.129,13.724l4.686,4.686C42.836,28.276,52.893,23.773,64,23.773z"/>
	<path fill="#AAE249" stroke="#5B5B5B" stroke-width="2" stroke-miterlimit="10" d="M23.775,64c0-11.107,4.502-21.164,11.781-28.443
		l-4.686-4.686C22.393,39.349,17.148,51.062,17.148,64l0,0H23.775L23.775,64z"/>
	<path fill="#AAE249" stroke="#5B5B5B" stroke-width="2" stroke-miterlimit="10" d="M23.775,64h-6.627
		c0,12.939,5.244,24.652,13.723,33.13l4.688-4.688C28.279,85.163,23.775,75.106,23.775,64z"/>
	<path fill="#AAE249" stroke="#5B5B5B" stroke-width="2" stroke-miterlimit="10" d="M35.559,92.442l-4.688,4.688
		c8.479,8.479,20.191,13.723,33.129,13.723v-6.629C52.895,104.224,42.838,99.722,35.559,92.442z"/>
	<path fill="#AAE249" stroke="#5B5B5B" stroke-width="2" stroke-miterlimit="10" d="M64,17.147v6.626
		c11.107,0,21.164,4.503,28.445,11.783l4.686-4.687C88.652,22.391,76.939,17.147,64,17.147z"/>
	<path fill="#AAE249" stroke="#5B5B5B" stroke-width="2" stroke-miterlimit="10" d="M92.443,92.442l4.688,4.688
		c8.479-8.479,13.723-20.191,13.723-33.13h-6.627C104.227,75.106,99.723,85.163,92.443,92.442z"/>
	<path fill="#AAE249" stroke="#5B5B5B" stroke-width="2" stroke-miterlimit="10" d="M104.227,64L104.227,64h6.627l0,0
		c0-12.938-5.244-24.65-13.723-33.13l-4.686,4.687C99.725,42.835,104.227,52.892,104.227,64z"/>
	<path fill="#AAE249" stroke="#5B5B5B" stroke-width="2" stroke-miterlimit="10" d="M64,104.224v6.629
		c12.939,0,24.652-5.244,33.131-13.723l-4.688-4.688C85.162,99.722,75.107,104.224,64,104.224z"/>
</g>
<path fill="#F7F743" stroke="#5B5B5B" stroke-width="2" stroke-miterlimit="10" d="M64,97.081v7.143
	c11.107,0,21.162-4.502,28.443-11.781l-5.051-5.051C81.406,93.378,73.135,97.081,64,97.081z"/>
<path fill="#F7F743" stroke="#5B5B5B" stroke-width="2" stroke-miterlimit="10" d="M40.609,87.392l-5.051,5.051
	c7.279,7.279,17.336,11.781,28.441,11.781v-7.143C54.865,97.081,46.596,93.378,40.609,87.392z"/>
<path fill="#F7F743" stroke="#5B5B5B" stroke-width="2" stroke-miterlimit="10" d="M30.918,64h-7.143
	c0,11.107,4.504,21.164,11.783,28.443l5.051-5.051C34.621,81.405,30.918,73.136,30.918,64z"/>
<path fill="#F7F743" stroke="#5B5B5B" stroke-width="2" stroke-miterlimit="10" d="M30.918,64c0-9.135,3.703-17.405,9.689-23.392
	l-5.051-5.052C28.277,42.835,23.775,52.892,23.775,64l0,0H30.918L30.918,64z"/>
<path fill="#F7F743" stroke="#5B5B5B" stroke-width="2" stroke-miterlimit="10" d="M87.393,87.392l5.051,5.051
	c7.279-7.279,11.783-17.336,11.783-28.443h-7.145C97.082,73.136,93.379,81.405,87.393,87.392z"/>
<path fill="#F7F743" stroke="#5B5B5B" stroke-width="2" stroke-miterlimit="10" d="M97.082,64L97.082,64h7.145l0,0
	c0-11.107-4.502-21.164-11.781-28.443l-5.053,5.052C93.379,46.594,97.082,54.865,97.082,64z"/>
<path fill="#F7F743" stroke="#5B5B5B" stroke-width="2" stroke-miterlimit="10" d="M35.557,35.556l5.051,5.052
	c5.986-5.987,14.258-9.69,23.393-9.69v-7.145C52.893,23.773,42.836,28.276,35.557,35.556z"/>
<path fill="#F7F743" stroke="#5B5B5B" stroke-width="2" stroke-miterlimit="10" d="M87.393,40.608l5.053-5.052
	C85.164,28.276,75.107,23.773,64,23.773v7.145C73.137,30.917,81.406,34.621,87.393,40.608z"/>
<g>
	<path fill="#FFD72E" stroke="#5B5B5B" stroke-width="2" stroke-miterlimit="10" d="M82.752,82.751l4.641,4.641
		c5.986-5.986,9.689-14.256,9.689-23.392L90.52,64C90.52,71.323,87.551,77.952,82.752,82.751z"/>
	<path fill="#FFD72E" stroke="#5B5B5B" stroke-width="2" stroke-miterlimit="10" d="M64.002,90.517c0,0,0,0-0.002,0v6.564
		c9.135,0,17.406-3.703,23.393-9.689l-4.641-4.641C77.953,87.55,71.324,90.517,64.002,90.517z"/>
	<path fill="#FFD72E" stroke="#5B5B5B" stroke-width="2" stroke-miterlimit="10" d="M45.252,82.749l-4.643,4.643
		c5.986,5.986,14.256,9.689,23.391,9.689v-6.564C56.678,90.517,50.049,87.548,45.252,82.749z"/>
	<path fill="#FFD72E" stroke="#5B5B5B" stroke-width="2" stroke-miterlimit="10" d="M37.484,64L30.918,64
		c0,9.136,3.703,17.406,9.691,23.392l4.643-4.643C40.453,77.95,37.484,71.321,37.484,64z"/>
	<path fill="#FFD72E" stroke="#5B5B5B" stroke-width="2" stroke-miterlimit="10" d="M30.918,64L37.484,64c0-0.001,0-0.001,0-0.001
		c0-7.322,2.969-13.951,7.766-18.749l-4.643-4.643C34.621,46.594,30.918,54.865,30.918,64L30.918,64z"/>
	<path fill="#FFD72E" stroke="#5B5B5B" stroke-width="2" stroke-miterlimit="10" d="M64,37.482v-6.564
		c-9.135,0-17.406,3.703-23.393,9.69l4.643,4.643C50.049,40.451,56.678,37.483,64,37.482z"/>
	<path fill="#FFD72E" stroke="#5B5B5B" stroke-width="2" stroke-miterlimit="10" d="M90.52,64C90.52,64,90.52,64,90.52,64h6.562l0,0
		c0-9.135-3.703-17.405-9.689-23.392l-4.641,4.641C87.551,50.047,90.52,56.676,90.52,64z"/>
	<path fill="#FFD72E" stroke="#5B5B5B" stroke-width="2" stroke-miterlimit="10" d="M64.002,37.482
		c7.322,0,13.951,2.968,18.75,7.767l4.641-4.641c-5.986-5.987-14.256-9.69-23.393-9.69v6.564
		C64.002,37.482,64.002,37.482,64.002,37.482z"/>
</g>
<g>
	<path fill="#F9A332" stroke="#5B5B5B" stroke-width="2" stroke-miterlimit="10" d="M77.764,77.763l4.988,4.988
		C87.551,77.952,90.52,71.323,90.52,64h-7.055C83.465,69.376,81.285,74.241,77.764,77.763z"/>
	<path fill="#F9A332" stroke="#5B5B5B" stroke-width="2" stroke-miterlimit="10" d="M64,83.46v7.057c0.002,0,0.002,0,0.002,0
		c7.322,0,13.951-2.967,18.75-7.766l-4.988-4.988C74.24,81.284,69.375,83.46,64,83.46z"/>
	<path fill="#F9A332" stroke="#5B5B5B" stroke-width="2" stroke-miterlimit="10" d="M50.238,77.763l-4.986,4.986
		c4.797,4.799,11.426,7.768,18.748,7.768V83.46C58.625,83.46,53.76,81.282,50.238,77.763z"/>
	<path fill="#F9A332" stroke="#5B5B5B" stroke-width="2" stroke-miterlimit="10" d="M83.465,64C83.465,64,83.465,64,83.465,64
		L90.52,64c0-0.001,0-0.001,0-0.001c0-7.323-2.969-13.952-7.768-18.751l-4.986,4.987C81.287,53.758,83.465,58.625,83.465,64z"/>
	<path fill="#F9A332" stroke="#5B5B5B" stroke-width="2" stroke-miterlimit="10" d="M50.238,77.763
		c-3.521-3.521-5.699-8.387-5.699-13.762h-7.055c0,7.321,2.969,13.95,7.768,18.749L50.238,77.763z"/>
	<path fill="#F9A332" stroke="#5B5B5B" stroke-width="2" stroke-miterlimit="10" d="M77.766,50.236l4.986-4.987
		c-4.799-4.799-11.428-7.767-18.75-7.767c0,0,0,0-0.002,0v7.053C69.377,44.535,74.242,46.713,77.766,50.236z"/>
	<path fill="#F9A332" stroke="#5B5B5B" stroke-width="2" stroke-miterlimit="10" d="M44.539,64c0-5.375,2.178-10.24,5.697-13.763
		L45.25,45.25C40.453,50.048,37.484,56.677,37.484,64c0,0,0,0,0,0.001L44.539,64C44.539,64,44.539,64,44.539,64z"/>
	<path fill="#F9A332" stroke="#5B5B5B" stroke-width="2" stroke-miterlimit="10" d="M64,44.535v-7.053
		c-7.322,0.001-13.951,2.969-18.75,7.769l4.986,4.986C53.758,46.713,58.625,44.535,64,44.535z"/>
</g>
<path fill="#E5420A" stroke="#5B5B5B" stroke-width="2" stroke-miterlimit="10" d="M75.365,64L75.365,64l8.1,0.001
	c0-0.001,0-0.001,0-0.001c0-5.375-2.178-10.241-5.699-13.764l-5.729,5.729C74.094,58.021,75.365,60.862,75.365,64z"/>
<path fill="#E5420A" stroke="#5B5B5B" stroke-width="2" stroke-miterlimit="10" d="M64,75.364v8.096
	c5.375,0,10.24-2.176,13.764-5.697l-5.729-5.727C69.979,74.093,67.139,75.364,64,75.364z"/>
<path fill="#E5420A" stroke="#5B5B5B" stroke-width="2" stroke-miterlimit="10" d="M72.037,55.964l5.729-5.729
	c-3.523-3.522-8.389-5.701-13.766-5.701v8.101C67.139,52.635,69.98,53.908,72.037,55.964z"/>
<path fill="#E5420A" stroke="#5B5B5B" stroke-width="2" stroke-miterlimit="10" d="M72.035,72.036l5.729,5.727
	c3.521-3.521,5.701-8.387,5.701-13.762h-8.1C75.365,67.138,74.092,69.979,72.035,72.036z"/>
<path fill="#E5420A" stroke="#5B5B5B" stroke-width="2" stroke-miterlimit="10" d="M52.637,64h-8.098
	c0,5.375,2.178,10.241,5.699,13.762l5.727-5.727C53.908,69.979,52.637,67.138,52.637,64z"/>
<path fill="#E5420A" stroke="#5B5B5B" stroke-width="2" stroke-miterlimit="10" d="M64,75.364c-3.137,0-5.979-1.271-8.035-3.328
	l-5.727,5.727C53.76,81.282,58.625,83.46,64,83.46V75.364z"/>
<path fill="#E5420A" stroke="#5B5B5B" stroke-width="2" stroke-miterlimit="10" d="M64,52.635v-8.101
	c-5.375,0-10.242,2.179-13.764,5.702l5.729,5.728C58.021,53.908,60.861,52.635,64,52.635z"/>
<path fill="#E5420A" stroke="#5B5B5B" stroke-width="2" stroke-miterlimit="10" d="M52.637,64c0-3.138,1.271-5.979,3.328-8.035
	l-5.729-5.728c-3.52,3.522-5.697,8.388-5.697,13.763c0,0,0,0,0,0.001L52.637,64L52.637,64z"/>
</svg>
