<?xml version="1.0" encoding="utf-8"?>
<!-- Generator: Adobe Illustrator 15.0.2, SVG Export Plug-In . SVG Version: 6.00 Build 0)  -->
<!DOCTYPE svg PUBLIC "-//W3C//DTD SVG 1.1//EN" "http://www.w3.org/Graphics/SVG/1.1/DTD/svg11.dtd">
<svg version="1.1" id="Layer_4" xmlns="http://www.w3.org/2000/svg" xmlns:xlink="http://www.w3.org/1999/xlink" x="0px" y="0px"
	 width="128px" height="128px" viewBox="0 0 128 128" enable-background="new 0 0 128 128" xml:space="preserve">
<path fill="#565758" d="M128,117.199c0,5.965-4.836,10.801-10.801,10.801H10.801C4.836,127.999,0,123.164,0,117.199v-106.4
	c0-5.965,4.836-10.8,10.801-10.8h106.398c5.965,0,10.801,4.835,10.801,10.8V117.199z"/>
<circle fill="#CCCCCC" stroke="#5B5B5B" stroke-width="2" stroke-miterlimit="10" cx="64.121" cy="63.999" r="55.75"/>
<g id="Layer_3">
	<path fill="none" stroke="#606060" stroke-width="0.25" d="M119.109,106.812"/>
	<line fill="none" stroke="#999999" stroke-width="0.25" x1="8.891" y1="64.069" x2="118.54" y2="64.069"/>
	<line fill="none" stroke="#999999" stroke-width="0.25" x1="64.116" y1="9.172" x2="64.116" y2="118.962"/>
	<line fill="none" stroke="#999999" stroke-width="0.25" x1="92.293" y1="16.933" x2="35.941" y2="111.203"/>
	<line fill="none" stroke="#999999" stroke-width="0.25" x1="16.816" y1="36.168" x2="111.416" y2="91.966"/>
	<ellipse fill="none" stroke="#999999" stroke-width="0.25" cx="64.119" cy="64.072" rx="18.988" ry="18.973"/>
	<path fill="none" stroke="#999999" stroke-width="0.25" d="M64.119,34.286c16.463,0,29.809,13.335,29.809,29.787
		c0,16.448-13.346,29.786-29.809,29.786c-16.461,0-29.806-13.338-29.806-29.786C34.313,47.621,47.657,34.286,64.119,34.286z"/>
	<path fill="none" stroke="#999999" stroke-width="0.25" d="M63.713,21.056c23.771,0,43.043,19.257,43.043,43.01
		c0,23.75-19.271,43.013-43.043,43.013c-23.768,0-43.039-19.263-43.039-43.013C20.674,40.312,39.943,21.056,63.713,21.056z"/>
	<line fill="none" stroke="#999999" stroke-width="0.25" x1="112.018" y1="37.49" x2="15.907" y2="90.645"/>
	<line fill="none" stroke="#999999" stroke-width="0.25" x1="37.103" y1="16.257" x2="91.139" y2="111.875"/>
	<ellipse fill="#CCCCCC" stroke="#999999" stroke-width="0.25" cx="64.116" cy="64.068" rx="8.823" ry="8.817"/>
	<path fill="none" stroke="#999999" stroke-width="0.25" d="M64.119,9.647c30.074,0,54.458,24.364,54.458,54.418
		c0,30.051-24.384,54.419-54.458,54.419S9.666,94.116,9.666,64.065C9.665,34.01,34.045,9.647,64.119,9.647z"/>
</g>
<circle fill="#3F3F3F" stroke="#3F3F3F" stroke-width="0.25" cx="55.293" cy="29.75" r="1.957"/>
<circle fill="#3F3F3F" stroke="#3F3F3F" stroke-width="0.25" cx="72.939" cy="29.75" r="1.957"/>
<circle fill="#3F3F3F" stroke="#3F3F3F" stroke-width="0.25" cx="83.107" cy="47.056" r="1.957"/>
<circle fill="#3F3F3F" stroke="#3F3F3F" stroke-width="0.25" cx="100.25" cy="55.251" r="1.957"/>
<circle fill="#3F3F3F" stroke="#3F3F3F" stroke-width="0.25" cx="111.416" cy="77.043" r="1.957"/>
<circle fill="#3F3F3F" stroke="#3F3F3F" stroke-width="0.25" cx="89.182" cy="90.645" r="1.957"/>
<circle fill="#3F3F3F" stroke="#3F3F3F" stroke-width="0.25" cx="69.976" cy="86.73" r="1.957"/>
<circle fill="#3F3F3F" stroke="#3F3F3F" stroke-width="0.25" cx="55.293" cy="98.762" r="1.957"/>
<circle fill="#3F3F3F" stroke="#3F3F3F" stroke-width="0.25" cx="37.103" cy="90.645" r="1.957"/>
<circle fill="#3F3F3F" stroke="#3F3F3F" stroke-width="0.25" cx="41.017" cy="70" r="1.957"/>
<circle fill="#3F3F3F" stroke="#3F3F3F" stroke-width="0.25" cx="50.25" cy="60.75" r="1.957"/>
<circle fill="#3F3F3F" stroke="#3F3F3F" stroke-width="0.25" cx="47.088" cy="47.056" r="1.957"/>
<g opacity="0.68">
	<path fill="#4D6996" d="M46.198,94.52c-5.002-2.232-8.214-8.703-7.138-14.381s4.034-12.403,6.573-14.947
		c2.539-2.543,3.905-7.706,3.035-11.472c-0.87-3.766,0.265-10.741,2.521-15.5c2.256-4.759,8.073-8.653,12.926-8.653
		c4.853,0,11.111,3.894,13.907,8.653c2.796,4.759,8.941,10.497,13.655,12.751c4.714,2.253,11.084,9,14.154,14.993
		c3.07,5.992,0.58,13.956-5.534,17.696s-15.714,5.92-21.333,4.844s-13.244,0.75-16.944,4.059C58.32,95.871,51.2,96.752,46.198,94.52
		z"/>
	<path fill="none" stroke="#3F3F3F" stroke-width="0.25" d="M46.198,94.52c-5.002-2.232-8.214-8.703-7.138-14.381
		s4.034-12.403,6.573-14.947c2.539-2.543,3.905-7.706,3.035-11.472c-0.87-3.766,0.265-10.741,2.521-15.5
		c2.256-4.759,8.073-8.653,12.926-8.653c4.853,0,11.111,3.894,13.907,8.653c2.796,4.759,8.941,10.497,13.655,12.751
		c4.714,2.253,11.084,9,14.154,14.993c3.07,5.992,0.58,13.956-5.534,17.696s-15.714,5.92-21.333,4.844s-13.244,0.75-16.944,4.059
		C58.32,95.871,51.2,96.752,46.198,94.52z"/>
	<path fill="none" stroke="#3F3F3F" stroke-width="2" stroke-linecap="round" stroke-linejoin="round" d="M46.198,94.52
		c-5.002-2.232-8.214-8.703-7.138-14.381s4.034-12.403,6.573-14.947c2.539-2.543,3.905-7.706,3.035-11.472
		c-0.87-3.766,0.265-10.741,2.521-15.5c2.256-4.759,8.073-8.653,12.926-8.653c4.853,0,11.111,3.894,13.907,8.653
		c2.796,4.759,8.941,10.497,13.655,12.751c4.714,2.253,11.084,9,14.154,14.993c3.07,5.992,0.58,13.956-5.534,17.696
		s-15.714,5.92-21.333,4.844s-13.244,0.75-16.944,4.059C58.32,95.871,51.2,96.752,46.198,94.52z"/>
	<path fill="#4D6996" d="M46.198,94.52c-5.002-2.232-8.214-8.703-7.138-14.381s4.034-12.403,6.573-14.947
		c2.539-2.543,3.905-7.706,3.035-11.472c-0.87-3.766,0.265-10.741,2.521-15.5c2.256-4.759,8.073-8.653,12.926-8.653
		c4.853,0,11.111,3.894,13.907,8.653c2.796,4.759,8.941,10.497,13.655,12.751c4.714,2.253,11.084,9,14.154,14.993
		c3.07,5.992,0.58,13.956-5.534,17.696s-15.714,5.92-21.333,4.844s-13.244,0.75-16.944,4.059C58.32,95.871,51.2,96.752,46.198,94.52
		z"/>
</g>
</svg>
