<?xml version="1.0" encoding="utf-8"?>
<!-- Generator: Adobe Illustrator 15.0.2, SVG Export Plug-In . SVG Version: 6.00 Build 0)  -->
<!DOCTYPE svg PUBLIC "-//W3C//DTD SVG 1.1//EN" "http://www.w3.org/Graphics/SVG/1.1/DTD/svg11.dtd">
<svg version="1.1" id="Layer_5" xmlns="http://www.w3.org/2000/svg" xmlns:xlink="http://www.w3.org/1999/xlink" x="0px" y="0px"
	 width="128px" height="128.246px" viewBox="0 0 128 128.246" enable-background="new 0 0 128 128.246" xml:space="preserve">
<path opacity="0.6" fill="#CECECE" enable-background="new    " d="M125.439,0.245v109.603c0,9.606-5.936,17.397-13.256,17.397
	H16.028c-7.32,0-13.256-7.791-13.256-17.397V0.245H125.439z"/>
<path fill="#B0AFD1" stroke="#000000" d="M111.693,34.097"/>
<path fill="#B0AFD1" d="M125.359,0"/>
<path opacity="0.6" fill="#A0A09F" enable-background="new    " d="M110.75,36.754c0,5.391-4.482,9.76-10.016,9.76H27.16
	c-5.533,0-10.016-4.369-10.016-9.76l0,0c0-5.391,4.483-9.76,10.016-9.76h73.574C106.268,26.995,110.75,31.364,110.75,36.754
	L110.75,36.754z"/>
<path fill="none" stroke="#565758" stroke-width="10" d="M110.75,36.754c0,5.39-4.482,9.759-10.016,9.759H27.16
	c-5.533,0-10.016-4.369-10.016-9.759l0,0c0-5.391,4.483-9.76,10.016-9.76h73.574C106.268,26.995,110.75,31.364,110.75,36.754
	L110.75,36.754z"/>
<path fill="none" stroke="#808284" stroke-width="5" d="M125.439,0.245v108.047c0,9.606-5.936,17.397-13.256,17.397H16.028
	c-7.32,0-13.256-7.791-13.256-17.397V0.245"/>
</svg>
